<?xml version="1.0" encoding="UTF-8"?>
<svg width="22px" height="51px" viewBox="0 0 22 51" version="1.1" xmlns="http://www.w3.org/2000/svg" xmlns:xlink="http://www.w3.org/1999/xlink">
    <title>Group 33</title>
    <defs>
        <polygon id="path-1" points="0.351960714 0.3022 2.34437298 0.3022 2.34437298 3.2 0.351960714 3.2"></polygon>
        <polygon id="path-3" points="0.000117857143 0.2908 21.6684286 0.2908 21.6684286 7.7732 0.000117857143 7.7732"></polygon>
    </defs>
    <g id="Symbols" stroke="none" stroke-width="1" fill="none" fill-rule="evenodd">
        <g id="section/navbar-white" transform="translate(-92.000000, -69.000000)">
            <g id="Group-33" transform="translate(92.000000, 69.000000)">
                <polygon id="Fill-1" fill="#050302" points="5.54850445 46.4504701 5 46.3478676 5.06345998 46 6 46.1757733 5.48302344 49 5.09498787 48.9276468"></polygon>
                <g id="Group-32">
                    <path d="M7.76753214,49.6358 C7.38449643,49.611 7.14171071,49.3662 7.16253214,49.0322 C7.18374643,48.6926 7.45521071,48.4754 7.83824643,48.4998 C8.22088929,48.5246 8.46328214,48.775 8.44246071,49.1146 C8.42203214,49.4434 8.15056786,49.6606 7.76753214,49.6358 M7.43910357,47.7642 C7.45324643,47.5358 7.64456786,47.3806 7.90660357,47.3974 C8.16903214,47.4142 8.33913929,47.593 8.32499643,47.8214 C8.30928214,48.0718 8.11953214,48.2162 7.85710357,48.199 C7.594675,48.1822 7.42378214,48.0146 7.43910357,47.7642 M8.24760357,48.3586 C8.48331786,48.2786 8.66953214,48.1062 8.68838929,47.8054 C8.71274643,47.4158 8.37488929,47.109 7.92663929,47.0798 C7.47799643,47.0514 7.10478214,47.3122 7.08081786,47.7022 C7.06196071,48.0026 7.22538929,48.203 7.44931786,48.307 C7.07688929,48.3838 6.79246071,48.6282 6.76653214,49.0458 C6.73628214,49.5358 7.14524643,49.9366 7.74631786,49.9754 C8.348175,50.0142 8.80310357,49.669 8.83374643,49.179 C8.85928214,48.7614 8.60785357,48.4826 8.24760357,48.3586" id="Fill-2" fill="#050302"></path>
                    <g id="Group-6" transform="translate(12.178571, 46.800000)">
                        <mask id="mask-2" fill="white">
                            <use xlink:href="#path-1"></use>
                        </mask>
                        <g id="Clip-5"></g>
                        <path d="M0.351960714,2.6854 L0.659175,2.4842 C0.808067857,2.699 1.01471071,2.8718 1.34824643,2.8534 C1.75799643,2.831 1.97406786,2.5562 1.95403214,2.1834 C1.93360357,1.8046 1.66881786,1.5622 1.24728214,1.5858 C0.974246429,1.601 0.733032143,1.7094 0.581389286,1.8462 L0.553496429,1.8362 L0.475710714,0.3886 L2.034175,0.3022 L2.05263929,0.6422 L0.827710714,0.7098 L0.863460714,1.3782 C0.975817857,1.3214 1.13178214,1.2738 1.29599643,1.2646 C1.90296071,1.231 2.31310357,1.6162 2.34256786,2.1674 C2.37321071,2.7354 2.012175,3.163 1.37731786,3.1982 C0.896460714,3.225 0.525996429,2.9714 0.351960714,2.6854" id="Fill-4" fill="#050302" mask="url(#mask-2)"></path>
                    </g>
                    <path d="M16.8465786,49.29652 C16.4694357,49.36612 16.1759714,49.18812 16.1174357,48.85852 C16.0581143,48.52372 16.2702571,48.24652 16.6474,48.17732 C17.0245429,48.10732 17.3187929,48.29132 17.3785071,48.62612 C17.4358643,48.94972 17.2237214,49.22692 16.8465786,49.29652 M16.0867929,47.56092 C16.0471143,47.33612 16.1956143,47.13812 16.4541143,47.09092 C16.7126143,47.04292 16.9200429,47.17492 16.9601143,47.39972 C17.0037214,47.64652 16.85365,47.83332 16.5943643,47.88092 C16.3358643,47.92892 16.1311857,47.80772 16.0867929,47.56092 M17.7733286,48.59292 C17.7002571,48.18132 17.3902929,47.97212 17.0115786,47.93972 C17.2213643,47.80492 17.3616143,47.59212 17.3089714,47.29572 C17.2406143,46.91172 16.8402929,46.69652 16.3983286,46.77812 C15.9567571,46.85932 15.6562214,47.20412 15.7245786,47.58812 C15.7768286,47.88412 15.9830786,48.03892 16.2246857,48.08532 C15.8813286,48.25052 15.6629,48.55692 15.7363643,48.96852 C15.8224,49.45172 16.3134714,49.74052 16.9059,49.63132 C17.4987214,49.52172 17.8589714,49.07572 17.7733286,48.59292" id="Fill-7" fill="#050302"></path>
                    <path d="M10.8334286,12.53384 C7.62535714,12.53384 5.56285714,11.94224 5.13110714,11.55744 C5.56285714,11.17304 7.62535714,10.58144 10.8334286,10.58144 C14.0411071,10.58144 16.1036071,11.17304 16.5353571,11.55744 C16.1036071,11.94224 14.0411071,12.53384 10.8334286,12.53384 M10.8334286,9.99544 C7.33896429,9.99544 4.50685714,10.69464 4.50685714,11.55744 C4.50685714,12.41944 7.33896429,13.11904 10.8334286,13.11904 C14.3278929,13.11904 17.1596071,12.41944 17.1596071,11.55744 C17.1596071,10.69464 14.3278929,9.99544 10.8334286,9.99544" id="Fill-9" fill="#050302"></path>
                    <path d="M5.18783571,10.12956 C4.99258571,10.12956 4.83387143,9.96916 4.83387143,9.76956 C4.83387143,9.56996 4.99258571,9.40876 5.18783571,9.40876 C5.38387143,9.40876 5.54297857,9.56996 5.54297857,9.76956 C5.54297857,9.96916 5.38387143,10.12956 5.18783571,10.12956" id="Fill-11" fill="#050302"></path>
                    <path d="M7.93803214,9.4598 C7.74278214,9.4598 7.58406786,9.2982 7.58406786,9.0998 C7.58406786,8.9002 7.74278214,8.739 7.93803214,8.739 C8.133675,8.739 8.29199643,8.9002 8.29199643,9.0998 C8.29199643,9.2982 8.133675,9.4598 7.93803214,9.4598" id="Fill-13" fill="#050302"></path>
                    <path d="M18.6723821,16.23932 L18.4916679,16.51692 L18.4806679,16.53772 L18.4130964,16.65012 L18.392275,16.69452 L18.3117393,16.85452 L18.2508464,16.99372 L18.1773821,17.18772 L18.1153107,17.37652 L18.0414536,17.67932 L18.0151321,17.82892 L17.9306679,18.48572 C17.9267393,18.52132 17.9090607,18.55292 17.8811679,18.57452 C17.858775,18.59252 17.8316679,18.60132 17.8033821,18.60132 C17.7970964,18.60132 17.7912036,18.60092 17.7849179,18.59972 L17.4906679,18.61732 L17.1056679,18.64772 L16.6428821,18.70092 L16.2790964,18.75772 L15.9192393,18.82892 L15.6524893,18.89372 L15.4081321,18.96052 L15.1013107,19.06212 L14.9048821,19.13892 C14.7752393,19.32252 14.5748821,19.14812 14.5458107,19.14372 L14.4546679,19.10612 L14.1863464,19.01412 C14.1749536,19.01292 14.1639536,19.00972 14.1537393,19.00612 L14.0673107,18.97292 L14.0299893,18.96052 C14.0240964,18.95772 14.0182036,18.95572 14.0130964,18.95292 L13.9368821,18.92652 C13.9274536,18.92252 13.9184179,18.91852 13.9109536,18.91332 L13.7137393,18.83932 L13.3868821,18.72932 L13.3106679,18.70972 L13.260775,18.69412 L13.1374179,18.66532 L12.9441321,18.63092 L12.8824536,18.62412 L12.754775,18.61492 L12.6294536,18.61452 L12.5013821,18.62252 L12.3658464,18.64092 L12.2346321,18.66572 L12.1383821,18.69132 L12.1262036,18.69172 L11.797775,18.75972 L11.6111679,18.80052 L11.225775,18.90092 C11.2155607,18.90372 11.2033821,18.90492 11.192775,18.90492 C11.1527036,18.90492 11.113025,18.88652 11.0878821,18.85292 C11.055275,18.81052 11.0513464,18.75332 11.0764893,18.70532 L11.3232036,18.24332 L11.3479536,18.16572 L11.3558107,18.09812 L11.3546321,18.07812 L11.344025,18.01372 L11.3267393,17.97172 L11.3173107,17.95452 L11.297275,17.92612 L11.2638821,17.89452 L11.2190964,17.87132 L11.192775,17.86212 L11.1633107,17.85532 L11.1063464,17.84532 L10.975525,17.83892 L10.8415607,17.84732 L10.6643821,17.87372 L10.4993821,17.91412 L10.433775,17.93652 L10.3434179,17.97332 L10.2801679,18.00892 L10.1886321,18.07412 L10.1289179,18.13732 L10.1029893,18.18932 L10.090025,18.23972 L10.0947393,18.26972 L10.0986679,18.28012 L10.1053464,18.30692 L10.1281321,18.35732 L10.1792036,18.43212 L10.3068821,18.57052 L10.6608464,18.88452 C10.7020964,18.92092 10.717025,18.97892 10.6985607,19.03092 C10.6804893,19.08372 10.6329536,19.11892 10.5783464,19.12132 L9.93838214,19.14252 L9.64531071,19.15252 L9.62291786,19.15412 L8.156775,19.20492 L3.92570357,19.31692 C3.89191786,19.31692 3.858525,19.30412 3.83416786,19.28012 C3.831025,19.27652 3.82788214,19.27292 3.82513214,19.27012 C3.79331071,19.24532 3.77288214,19.20772 3.77209643,19.16412 L3.767775,18.96372 L3.76345357,18.88092 L3.75598929,18.78692 L3.75088214,18.70252 L3.73673929,18.53212 L3.68841786,18.09772 L3.66995357,17.97452 C3.66759643,17.96612 3.66563214,17.95732 3.66445357,17.94812 L3.64088214,17.77012 L3.60513214,17.59252 L3.553275,17.39132 L3.49434643,17.20132 L3.39691786,16.95212 L3.36116786,16.86732 L3.26256071,16.67292 L3.17259643,16.51692 L2.997775,16.25412 C2.99463214,16.24932 2.99423929,16.24412 2.99188214,16.23932 C2.96909643,16.20612 2.95259643,16.16812 2.95259643,16.12492 C2.95259643,16.01332 3.04138214,15.92252 3.15138214,15.92252 C3.15491786,15.92252 3.15766786,15.92372 3.16120357,15.92452 C3.16395357,15.92372 3.16670357,15.92252 3.17063214,15.92252 L18.5030607,15.92252 L18.513275,15.92252 C18.6228821,15.92252 18.7124536,16.01332 18.7124536,16.12492 C18.7124536,16.16812 18.6955607,16.20612 18.6723821,16.23932 L18.6723821,16.23932 Z M17.8458107,22.78012 C17.8458107,22.85412 17.7864893,22.91452 17.7138107,22.91452 L3.95163214,22.91452 C3.87856071,22.91452 3.81923929,22.85412 3.81923929,22.78012 L3.81923929,19.92652 C3.81923929,19.88972 3.833775,19.85492 3.85931071,19.82972 C3.88445357,19.80532 3.91706071,19.79092 3.95163214,19.79092 L10.5783464,20.02012 C10.6329536,20.02252 10.6804893,20.05772 10.6985607,20.11012 C10.717025,20.16252 10.7020964,20.22092 10.6608464,20.25732 L10.3068821,20.57012 L10.1792036,20.70932 L10.1281321,20.78412 L10.1053464,20.83412 L10.0986679,20.86092 L10.0947393,20.87252 L10.090025,20.90092 L10.1029893,20.95252 L10.1289179,21.00372 L10.1886321,21.06772 L10.2801679,21.13172 L10.3434179,21.16852 L10.433775,21.20452 L10.4993821,21.22732 L10.6643821,21.26772 L10.8415607,21.29372 L10.975525,21.30252 L11.1063464,21.29612 L11.1633107,21.28612 L11.192775,21.27932 L11.2190964,21.27012 L11.2638821,21.24652 L11.297275,21.21532 L11.3173107,21.18692 L11.3267393,21.16972 L11.344025,21.12772 L11.3546321,21.06332 L11.3558107,21.04332 L11.3479536,20.97532 L11.3232036,20.89772 L11.0764893,20.43572 C11.0513464,20.38852 11.055275,20.33092 11.0878821,20.28812 C11.113025,20.25532 11.1527036,20.23612 11.192775,20.23612 C11.2033821,20.23612 11.2155607,20.23772 11.225775,20.24012 L11.6111679,20.34092 L11.797775,20.38172 L12.1262036,20.44932 L12.5662036,20.54892 L12.8584893,20.62132 L13.2171679,20.70372 L13.4041679,20.73692 L13.5145607,20.75172 L13.6139536,20.75932 L13.6524536,20.75972 L13.6905607,20.75812 L13.7239536,20.75492 L13.7549893,20.75012 L13.7895607,20.74332 L13.8535964,20.71692 L13.9011321,20.68332 L13.9188107,20.66652 L14.0158464,20.55932 L14.0853821,20.48972 L14.135275,20.44932 L14.2283821,20.39652 L14.2912393,20.37452 L14.3705964,20.35612 L14.4499536,20.35052 L14.5084893,20.35492 L14.5992393,20.37212 C14.6122036,20.37492 14.6255607,20.38012 14.6377393,20.38692 L14.7328107,20.44132 L14.847525,20.48412 L15.2753464,20.59292 L15.8414536,20.72692 L16.016275,20.76172 L16.2771321,20.80772 L16.464525,20.83412 L16.7650607,20.86812 L17.2282393,20.90132 L17.7189179,20.92252 C17.7904179,20.92612 17.8458107,20.98532 17.8458107,21.05772 L17.8458107,22.78012 Z M17.8458107,40.02132 C17.8458107,40.09052 17.7939536,40.14932 17.726775,40.15612 C17.726775,40.15612 17.2423821,40.20332 17.2380607,40.20332 C17.1901321,40.20332 17.1453464,40.17692 17.121775,40.13332 L17.0373107,39.97612 L17.0219893,39.95652 L16.9748464,39.91372 L16.9194536,39.87652 L16.8695607,39.85292 L16.8129893,39.83052 L16.7006321,39.79692 L16.613025,39.77732 L16.3018821,39.73332 L16.1231321,39.71452 L15.9534179,39.69092 L15.810025,39.66412 L15.6772393,39.62652 L15.587275,39.59132 L15.4796321,39.53612 L15.4053821,39.48532 L15.3688464,39.45292 L15.3110964,39.39292 L15.2580607,39.31572 C15.2498107,39.30372 15.2431321,39.29012 15.2395964,39.27612 L15.2058107,39.15852 C15.2018821,39.14532 15.2003107,39.13252 15.2003107,39.11892 L15.2018821,39.03092 L15.2081679,38.98132 L15.2301679,38.86692 L15.3240607,38.59532 L15.3417393,38.54892 L15.3598107,38.46652 L15.359025,38.44852 L15.3543107,38.41532 L15.3311321,38.34292 L15.3268107,38.33252 L15.3181679,38.32092 L15.246275,38.25332 L15.2164179,38.23132 L15.1382393,38.21132 L15.0859893,38.20492 L13.890525,38.20412 L13.8315964,38.20812 L13.7824893,38.21772 L13.7428107,38.23172 L13.7082393,38.25372 L13.6536321,38.30412 L13.6249536,38.33932 L13.6096321,38.37252 L13.5943107,38.44772 L13.5970607,38.48612 L13.6053107,38.52172 L13.6406679,38.62772 L13.6630607,38.67692 L13.7294536,38.88532 L13.7510607,39.00852 L13.7542036,39.10452 C13.7545964,39.11532 13.7538107,39.12652 13.7518464,39.13692 L13.7388821,39.19572 L13.717275,39.26972 C13.7141321,39.28132 13.709025,39.29212 13.703525,39.30212 L13.6724893,39.35252 L13.6241679,39.41452 L13.5393107,39.49292 L13.4619179,39.54372 L13.3428821,39.60212 L13.2592036,39.63252 L13.1696321,39.65732 L13.0537393,39.68252 L12.8266679,39.71452 L12.6518464,39.73412 L12.4310607,39.76172 L12.2715607,39.79252 L12.1898464,39.81452 L12.1336679,39.83252 L12.0499893,39.86852 L11.9824179,39.91252 L11.9521679,39.93732 L11.9246679,39.96492 L11.902275,39.99692 L11.8633821,40.08052 L11.8378464,40.18492 L11.8111321,40.37732 C11.8017036,40.44372 11.7463107,40.49292 11.6807036,40.49332 L11.2410964,40.49692 C11.2057393,40.49692 11.1727393,40.48292 11.1475964,40.45772 C11.1228464,40.43292 11.1090964,40.39812 11.1090964,40.36172 L11.1090964,23.54852 C11.1090964,23.47412 11.168025,23.41372 11.2410964,23.41372 L17.7138107,23.41372 C17.7864893,23.41372 17.8458107,23.47412 17.8458107,23.54852 L17.8458107,40.02132 Z M8.492275,39.11652 L8.49070357,39.64892 L8.47813214,40.32212 C8.47734643,40.35852 8.462025,40.39332 8.43570357,40.41892 C8.41134643,40.44172 8.37873929,40.45492 8.34573929,40.45492 C8.34338214,40.45492 6.02120357,40.33332 6.02120357,40.33332 C5.951275,40.32932 5.896275,40.27172 5.89548929,40.20052 L5.88920357,39.79532 L5.88409643,39.24172 L5.88645357,38.97332 L5.88645357,38.72492 L5.88920357,38.48972 L5.921025,37.22852 L5.94381071,36.99372 L5.96345357,36.89132 L5.99016786,36.80172 L6.02709643,36.69932 L6.07698929,36.59332 L6.16381071,36.44372 L6.273025,36.29972 L6.35434643,36.21092 L6.44509643,36.12812 L6.53466786,36.06212 L6.58534643,36.03092 L6.64270357,36.00132 L6.74170357,35.95852 L6.84188214,35.92612 L6.89531071,35.91452 L6.99588214,35.89812 L7.09488214,35.88932 L7.18248929,35.88772 L7.24848929,35.88812 L7.312525,35.89172 L7.43313214,35.90612 L7.55216786,35.93172 L7.65470357,35.96652 L7.75488214,36.01092 L7.85898929,36.07372 L7.95288214,36.14652 L8.03616786,36.22532 L8.11513214,36.31332 L8.18584643,36.40492 L8.22591786,36.46412 L8.30684643,36.60852 L8.33434643,36.66492 L8.37873929,36.77252 L8.40859643,36.87172 L8.42823929,36.96772 L8.45181071,37.16132 L8.45534643,37.25572 L8.45848929,37.30492 L8.48520357,38.39092 L8.49070357,38.84892 L8.492275,39.11652 Z M9.71798929,30.65292 L9.71366786,30.63572 L9.69598929,30.59892 L9.641775,30.54252 L9.59698929,30.52732 L9.57223929,30.52292 L9.248525,30.52292 C9.212775,30.52292 9.17898929,30.50932 9.15423929,30.48372 C9.12988214,30.45892 9.11534643,30.42412 9.11573929,30.38852 L9.11613214,28.78692 L9.11023929,28.74812 L9.09570357,28.71772 L9.05956071,28.67252 L9.03206071,28.65652 L8.97706071,28.64092 L8.96448929,28.64012 L8.94288214,28.64252 L8.90634643,28.65412 L8.88788214,28.66492 L8.83916786,28.71412 L8.82306071,28.75772 L8.81638214,28.89852 C8.81245357,28.97052 8.75431071,29.02652 8.68359643,29.02652 L8.50013214,29.02612 L8.38581071,29.01972 C8.31863214,29.01572 8.26441786,28.96052 8.26088214,28.89172 L8.25773929,28.79932 L8.25420357,28.75772 L8.22984643,28.70852 L8.18506071,28.66372 L8.14656071,28.64412 L8.10648929,28.64092 L8.06484643,28.64772 L8.04284643,28.65652 L8.00198929,28.68772 L7.98431071,28.71132 L7.96191786,28.76252 L7.95956071,28.79052 L7.95956071,30.38852 C7.95956071,30.46332 7.90063214,30.52292 7.82756071,30.52292 L6.54920357,30.52292 C6.47613214,30.52292 6.41681071,30.46332 6.41681071,30.38852 L6.41681071,28.80492 L6.41798929,28.78852 L6.40698929,28.74132 L6.38538214,28.69812 L6.34648929,28.66452 L6.30681071,28.64412 L6.281275,28.63932 L6.24591786,28.64292 L6.201525,28.65652 L6.18188214,28.66532 L6.14023929,28.71852 L6.13434643,28.72972 L6.12256071,28.78012 L6.11745357,28.89772 C6.11391786,28.96972 6.05538214,29.02652 5.98466786,29.02652 L5.692775,29.02652 C5.621275,29.02652 5.56273929,28.96972 5.56038214,28.89772 L5.55409643,28.76372 L5.54623929,28.72932 L5.53720357,28.71292 L5.48770357,28.66132 L5.48338214,28.65852 L5.43191786,28.64252 L5.41148929,28.64052 L5.36866786,28.64732 L5.346275,28.65652 L5.29520357,28.69612 L5.28538214,28.71052 L5.26495357,28.76332 C5.263775,28.77372 5.26259643,28.78452 5.261025,28.79052 L5.261025,30.38852 C5.261025,30.46332 5.20209643,30.52292 5.12823929,30.52292 L4.82416786,30.52172 L4.76288214,30.53132 L4.74009643,30.54132 L4.70906071,30.56452 L4.66898929,30.61772 L4.66466786,30.62932 L4.66034643,30.65012 L4.658775,30.67412 L4.65445357,31.69692 L4.67448929,31.76852 L4.68391786,31.78732 L5.22409643,32.68852 C5.23863214,32.71252 5.24491786,32.74052 5.24295357,32.76932 L4.69098929,40.09052 C4.68823929,40.12692 4.67173929,40.16012 4.64423929,40.18372 C4.620275,40.20412 4.590025,40.21532 4.55898929,40.21532 C4.55506071,40.21532 3.93906071,40.15612 3.93906071,40.15612 C3.87109643,40.14972 3.81923929,40.09092 3.81923929,40.02132 L3.81923929,23.54852 C3.81923929,23.47412 3.87856071,23.41372 3.95163214,23.41372 L10.4247393,23.41372 C10.4982036,23.41372 10.5571321,23.47412 10.5571321,23.54852 L10.5571321,40.36172 C10.5571321,40.39812 10.5433821,40.43292 10.5186321,40.45772 C10.4938821,40.48292 10.4604893,40.49692 10.4247393,40.49692 L9.83663214,40.49172 C9.76788214,40.49092 9.71131071,40.43692 9.70581071,40.36692 L9.133025,32.76932 C9.13106071,32.74052 9.13773929,32.71252 9.152275,32.68772 L9.68223929,31.80892 L9.71523929,31.72652 L9.71838214,31.70172 L9.71798929,30.65292 Z M17.8458107,41.95692 C17.8458107,42.02532 17.795525,42.08292 17.7287393,42.09092 L16.9638464,42.18092 L16.2877393,42.25212 L15.6077036,42.31532 L14.9284536,42.36972 L14.245275,42.41612 L13.5620964,42.45452 L12.8808821,42.48332 L12.1980964,42.50412 L11.5149179,42.51692 L10.8309536,42.52092 L10.1481679,42.51692 L9.46341786,42.50412 L8.781025,42.48332 L8.09823929,42.45452 L7.41663214,42.41572 L6.73581071,42.36932 L6.05616786,42.31532 L5.37691786,42.25212 L4.69845357,42.18052 L3.93670357,42.09092 C3.869525,42.08292 3.81923929,42.02532 3.81923929,41.95692 L3.81923929,40.78932 C3.81923929,40.75132 3.83495357,40.71452 3.86284643,40.68932 C3.88720357,40.66652 3.919025,40.65412 3.95163214,40.65412 C3.95634643,40.65412 4.87838214,40.74612 4.87838214,40.74612 L5.69984643,40.82012 L6.11588214,40.85252 L6.95973929,40.91292 L7.386775,40.94012 L8.25498929,40.98852 L8.69381071,41.00972 L9.13891786,41.02812 L10.0354179,41.05972 L10.9374179,41.08332 L11.9368464,41.04772 L12.9244893,41.00372 L13.893275,40.95252 L14.8432036,40.89292 L15.7762393,40.82532 L16.6943464,40.74932 L17.1441679,40.70932 C17.1441679,40.70932 17.7094893,40.65412 17.7138107,40.65412 C17.746025,40.65412 17.7782393,40.66652 17.8029893,40.68932 C17.8300964,40.71492 17.8458107,40.75132 17.8458107,40.78932 L17.8458107,41.95692 Z M17.7876679,42.77692 L17.713025,42.96692 L17.6540964,43.11052 L17.5456679,43.31252 L17.396775,43.52852 L17.2490607,43.69892 L17.1453464,43.79692 L17.0542036,43.87692 L16.9575607,43.95332 L16.8581679,44.02252 L16.7528821,44.09012 L16.588275,44.18332 L16.3647393,44.28652 L16.2492393,44.32932 L16.1286321,44.36972 L16.0072393,44.40212 L15.8229893,44.44252 L15.6407036,44.46852 L15.4595964,44.48252 L15.2718107,44.48732 L13.9663464,44.59812 L13.0289893,44.69412 L12.5728821,44.76532 L12.4876321,44.78212 L12.317525,44.82332 L12.0621679,44.90332 L11.9054179,44.96412 L11.7140964,45.05052 L11.5597036,45.13252 L11.3393107,45.28332 L11.2776321,45.33692 L11.1291321,45.48252 L11.071775,45.54852 L10.9338821,45.72012 C10.9087393,45.75132 10.871025,45.76972 10.8317393,45.76972 L10.829775,45.76972 C10.7900964,45.76932 10.7523821,45.75052 10.7272393,45.71852 L10.604275,45.55972 L10.4683464,45.41012 L10.296275,45.26132 L10.1485607,45.15932 L10.0727393,45.11532 L9.96313214,45.05732 L9.81306071,44.98652 L9.553775,44.88612 L9.36284643,44.82852 L9.10513214,44.76732 L8.65020357,44.69612 L7.71206071,44.59972 L6.40463214,44.48812 L6.25456071,44.48332 L6.07148929,44.47292 L5.88881071,44.45052 L5.76663214,44.42732 L5.58120357,44.38212 L5.404025,44.32572 L5.28695357,44.28052 L5.11723929,44.20372 L5.00448929,44.14412 L4.85009643,44.05132 L4.74245357,43.97772 L4.55584643,43.83012 L4.53620357,43.81212 C4.53070357,43.80852 4.52638214,43.80452 4.521275,43.80012 L4.37316786,43.65172 L4.21209643,43.45332 L4.14098929,43.34732 L4.00270357,43.08812 L3.87620357,42.77892 C3.85773929,42.73452 3.864025,42.68372 3.89231071,42.64572 C3.91745357,42.61172 3.95713214,42.59172 3.99838214,42.59172 C4.00348929,42.59172 4.84341786,42.68852 4.84341786,42.68852 L5.50498929,42.75732 L6.168525,42.81732 L6.83245357,42.87052 L7.49716786,42.91532 L8.16423929,42.95092 L8.82934643,42.97972 L9.496025,42.99972 L10.1630964,43.01212 L10.8309536,43.01612 L11.4972393,43.01212 L12.1647036,42.99972 L12.8325607,42.98012 L13.500025,42.95092 L14.1647393,42.91532 L14.831025,42.87092 L15.4945607,42.81812 L16.1596679,42.75732 L16.822025,42.68892 C16.822025,42.68892 17.6595964,42.59172 17.6650964,42.59172 C17.7055607,42.59172 17.7448464,42.61172 17.7703821,42.64492 C17.7986679,42.68292 17.8053464,42.73332 17.7876679,42.77692 L17.7876679,42.77692 Z M20.0839179,15.67292 L20.0701679,15.63172 L20.0355964,15.57492 L20.0135964,15.55052 C20.0084893,15.54732 19.9994536,15.53892 19.9904179,15.53092 L19.9236321,15.49172 L19.8694179,15.47492 C19.8615607,15.47372 19.8364179,15.46852 19.8364179,15.46852 L19.7963464,15.46372 L1.90484643,15.46212 L1.801525,15.47212 L1.75988214,15.48252 L1.71548929,15.50372 L1.65773929,15.54572 L1.61648929,15.59212 L1.59291786,15.63772 L1.58270357,15.67412 L1.581525,15.73252 L1.58309643,15.74972 L1.59331071,15.78172 L1.62984643,15.84492 C1.63495357,15.85052 1.64006071,15.85652 1.64398929,15.86172 L1.67070357,15.88812 C1.67934643,15.89212 1.68720357,15.89772 1.69506071,15.90452 L1.69663214,15.90852 L1.71666786,15.92132 L1.75673929,15.94132 L1.78816786,15.95052 C1.79170357,15.95092 1.79956071,15.95412 1.807025,15.95732 L1.84670357,15.96412 C1.85848929,15.96612 1.86870357,15.96932 1.87970357,15.97412 L2.03291786,16.04572 L2.13073929,16.10292 L2.22188214,16.16732 L2.35584643,16.27772 L2.44070357,16.36212 L2.52673929,16.45812 L2.64106071,16.60772 L2.714525,16.71652 L2.75498929,16.78292 L2.85359643,16.96692 L2.887775,17.03932 L2.94748929,17.18092 L3.014275,17.36692 L3.04963214,17.48372 L3.09166786,17.63212 L3.14156071,17.86052 L3.15570357,17.94252 L3.20559643,18.25932 L3.21070357,18.32812 L3.220525,18.41372 L3.24409643,18.67252 L3.25784643,18.94852 L3.26766786,19.24892 L3.26766786,42.22932 L3.27316786,42.39332 L3.28809643,42.55732 L3.31638214,42.72452 L3.36156071,42.91292 L3.42598929,43.10932 L3.47431071,43.23092 L3.56466786,43.41892 L3.67663214,43.60812 L3.71473929,43.66692 L3.79645357,43.78212 L3.93748929,43.95412 L4.04159643,44.06372 L4.09384643,44.11452 L4.207775,44.21812 L4.26316786,44.26452 L4.386525,44.35972 L4.50791786,44.44692 L4.57273929,44.48732 L4.70238214,44.56492 L4.83516786,44.63612 L5.00095357,44.71292 L5.09248929,44.75092 L5.18795357,44.78612 L5.28106071,44.81852 L5.37848929,44.84812 L5.47356071,44.87492 L5.56863214,44.89812 L5.66606071,44.91892 L5.75956071,44.93612 L5.85541786,44.95132 L5.94656071,44.96292 L6.13670357,44.97852 L6.23020357,44.98172 L6.34216786,44.98452 L7.66256071,45.09612 L8.13241786,45.13932 L8.58695357,45.19092 L8.92638214,45.24292 L9.10473929,45.28012 L9.31295357,45.33492 L9.42256071,45.37212 L9.57263214,45.43212 L9.68341786,45.48572 L9.83073929,45.56652 L9.96234643,45.64972 L10.0825607,45.75012 L10.1524893,45.82932 L10.2169179,45.91532 L10.2895964,46.04652 L10.3151321,46.10572 L10.348525,46.20932 L10.3497036,46.22252 L10.3862393,46.32012 L10.4270964,46.38692 L10.4738464,46.44172 L10.527275,46.49132 L10.6231321,46.55572 L10.6828464,46.58492 L10.780275,46.61252 L10.8329179,46.61972 L10.8588464,46.61732 L10.920525,46.60492 L10.9963464,46.57932 L11.1291321,46.50012 L11.1523107,46.48052 L11.2218464,46.40892 L11.2469893,46.37692 L11.3012036,46.26092 L11.3620964,46.08252 L11.4060964,45.98692 L11.4371321,45.93492 L11.5235607,45.81452 L11.6021321,45.73452 L11.6748107,45.67292 L11.7667393,45.60772 L11.9423464,45.50652 L12.1069536,45.42652 L12.2071321,45.38572 L12.3682036,45.33052 L12.5186679,45.29012 L12.6911321,45.25252 L12.9504179,45.20892 L13.5389179,45.13892 L14.0048464,45.09612 L15.3401679,44.98332 L15.4313107,44.98212 L15.5193107,44.97932 L15.708275,44.96332 L15.8029536,44.95172 L15.8984179,44.93692 L15.991525,44.92092 L16.186775,44.87652 L16.2798821,44.85172 L16.3753464,44.82132 L16.4719893,44.78772 L16.566275,44.75372 L16.6601679,44.71572 L16.7497393,44.67492 L16.8848821,44.60732 L17.022775,44.53052 L17.0820964,44.49492 L17.2753821,44.36412 L17.3347036,44.31932 L17.3928464,44.27212 L17.5071679,44.17572 L17.6159893,44.07092 L17.7200964,43.96052 L17.768025,43.90612 L17.8139893,43.85052 L17.9019893,43.73532 L17.9837036,43.61452 L18.0583464,43.49572 L18.1239536,43.37252 L18.1836679,43.24372 L18.2347393,43.12412 L18.2979893,42.92852 L18.3309893,42.80452 L18.3604536,42.65452 L18.3855964,42.48932 L18.392275,42.40972 L18.3965964,42.23852 L18.3965964,19.34532 L18.4036679,19.03852 L18.4091679,18.95092 L18.4119179,18.84772 L18.4237036,18.67292 L18.4288107,18.57772 L18.4366679,18.48572 L18.4460964,18.41492 L18.4539536,18.32532 L18.4849893,18.08812 L18.5427393,17.76812 L18.5981321,17.54692 L18.656275,17.35052 L18.7540964,17.09452 L18.8181321,16.95732 L18.9190964,16.76972 L18.9579893,16.70732 L19.0719179,16.54172 L19.1524536,16.44372 L19.2369179,16.35172 L19.3264893,16.26372 L19.4600607,16.15492 L19.5504179,16.09372 L19.6525607,16.03452 L19.8077393,15.96732 L19.891025,15.94852 L19.9271679,15.93292 L19.9821679,15.89852 L19.9990607,15.88612 L20.0465964,15.83012 L20.0674179,15.79532 L20.0803821,15.75052 C20.0811679,15.74812 20.086275,15.71452 20.086275,15.71452 L20.0870607,15.69332 L20.0839179,15.67292 Z" id="Fill-15" fill="#050302"></path>
                    <path d="M17.0821357,28.75728 L17.0915643,28.88808 L17.0907786,37.91248 L17.0821357,37.96568 L17.0605286,38.00208 L17.0247786,38.03848 L17.0004214,38.05448 L16.9858857,38.05888 L16.93835,38.06688 L16.9088857,38.06328 L16.8656714,38.04808 L16.8303143,38.02408 L16.8153857,38.00688 L16.7984929,37.97808 L16.7851357,37.91648 L16.7851357,28.89088 L16.7819929,28.84368 L16.7819929,28.82688 C16.7819929,28.81728 16.7816,28.80768 16.7792429,28.79888 L16.7725643,28.76448 L16.7627429,28.69048 L16.7014571,28.49288 L16.65235,28.39048 L16.5965643,28.29768 L16.5297786,28.20728 L16.4724214,28.14528 L16.3659571,28.04848 L16.2422071,27.96368 L16.1094214,27.89888 L15.9408857,27.84608 L15.7990643,27.82368 L15.70635,27.81968 L15.5032429,27.84088 L15.3916714,27.86968 L15.26085,27.91968 L15.1406357,27.98448 L14.7477786,28.27288 C14.7010286,28.30768 14.6821714,28.36808 14.6994571,28.42408 C14.7167429,28.48008 14.7682071,28.51728 14.8255643,28.51728 L15.1924929,28.51728 L15.2973857,28.52568 L15.3940286,28.54608 L15.41485,28.55168 L15.5181714,28.59088 L15.5951714,28.63008 L15.6603857,28.67248 L15.7680286,28.76248 L15.8297071,28.82928 L15.8807786,28.89928 L15.9236,28.97408 L15.9617071,29.05488 L15.9872429,29.12728 L16.0002071,29.17568 L16.0151357,29.26048 L16.0241714,29.34248 L16.0226,29.38048 L16.0226,36.11528 L16.0214214,36.15088 L16.0135643,36.17328 L16.0072786,36.18648 L15.9793857,36.22688 L15.9617071,36.24168 L15.9424571,36.25448 L15.9110286,36.26688 L15.8835286,36.27128 L15.86035,36.27128 L15.8234214,36.26408 L15.8136,36.25888 L15.76135,36.22528 L15.7511357,36.21368 C15.7491714,36.20888 15.7275643,36.17088 15.7275643,36.17088 L15.7189214,36.13968 L15.7169571,36.12048 L15.7181357,29.33288 C15.7181357,29.32088 15.7165643,29.30928 15.7142071,29.29728 L15.6851357,29.19048 C15.6819929,29.17848 15.6776714,29.16728 15.6717786,29.15728 L15.6026357,29.03768 C15.5939929,29.02248 15.5833857,29.00968 15.5696357,28.99888 L15.4458857,28.90168 C15.4344929,28.89248 15.4215286,28.88488 15.4073857,28.88048 L15.2926714,28.84128 C15.2816714,28.83768 15.2710643,28.83528 15.2596714,28.83488 C15.2596714,28.83488 15.1579214,28.82648 15.1543857,28.82648 C15.1461357,28.82648 15.1382786,28.82768 15.1296357,28.82888 L15.0235643,28.84888 C15.0121714,28.85128 15.0015643,28.85528 14.99135,28.85968 L14.8954929,28.90608 C14.8860643,28.91008 14.8770286,28.91608 14.8691714,28.92328 L14.8019929,28.97768 L14.7356,29.05088 C14.7289214,29.05928 14.7230286,29.06848 14.7171357,29.07848 L14.6660643,29.18328 C14.6593857,29.19448 14.6554571,29.20728 14.6527071,29.21968 L14.6350286,29.29368 C14.6314929,29.30648 14.6303143,29.31968 14.6307071,29.33328 L14.6295286,37.37648 L14.6185286,37.42168 L14.6028143,37.44888 L14.5867071,37.46808 L14.5717786,37.48048 L14.5434929,37.49808 L14.5156,37.50808 L14.4657071,37.51528 L14.4059929,37.49368 L14.3623857,37.46408 L14.3454929,37.43768 L14.3317429,37.40648 L14.3274214,37.39248 L14.3223143,37.35528 L14.3238857,29.38168 L14.3207429,29.30768 C14.32035,29.29728 14.3183857,29.28768 14.3160286,29.27808 L14.2912786,29.18768 C14.2889214,29.17728 14.2842071,29.16728 14.2783143,29.15808 L14.2229214,29.05768 C14.2174214,29.04768 14.2099571,29.03808 14.2021,29.02968 L14.1459214,28.96928 C14.1372786,28.95928 14.1274571,28.95088 14.1160643,28.94408 L14.0410286,28.89408 C14.0308143,28.88808 14.0206,28.88248 14.0096,28.87848 L13.8996,28.84128 C13.8886,28.83768 13.8783857,28.83528 13.8669929,28.83488 C13.8669929,28.83488 13.7617071,28.82648 13.7581714,28.82648 C13.7487429,28.82648 13.7389214,28.82768 13.7302786,28.82968 L13.59985,28.85848 C13.5861,28.86168 13.5731357,28.86688 13.5605643,28.87408 L13.4596,28.93488 C13.45135,28.94008 13.4442786,28.94568 13.4376,28.95208 L13.37435,29.01128 C13.3668857,29.01808 13.3602071,29.02608 13.3547071,29.03448 L13.3052071,29.10808 C13.2997071,29.11688 13.2946,29.12648 13.2914571,29.13608 L13.2584571,29.22368 L13.2388143,29.31248 C13.2376357,29.32168 13.23685,29.33088 13.23685,29.33968 L13.23685,36.11528 L13.2337071,36.14368 L13.2136714,36.19728 L13.1775286,36.23568 L13.1480643,36.25528 L13.1233143,36.26448 L13.0801,36.27008 L13.0337429,36.26368 L13.0199929,36.25728 L12.9956357,36.24168 L12.9814929,36.23048 L12.9488857,36.18608 L12.9331714,36.14888 L12.9308143,36.12728 L12.9316,29.34928 L12.9473143,29.20608 L12.9575286,29.16288 L12.97285,29.11008 L13.0011357,29.03408 L13.0400286,28.95608 L13.0867786,28.88048 L13.1417786,28.80968 L13.1967786,28.75248 L13.3059929,28.66488 L13.3826,28.61648 L13.4152071,28.60048 L13.5039929,28.56368 L13.5770643,28.54088 L13.6689929,28.52408 L14.1042786,28.49608 C14.1596714,28.49248 14.2068143,28.45448 14.2229214,28.39968 C14.2386357,28.34528 14.2189929,28.28728 14.1742071,28.25288 L13.8446,28.00408 L13.69885,27.92128 L13.5754929,27.87328 L13.4446714,27.83768 L13.2596357,27.81968 L13.0942429,27.83168 L12.9885643,27.85128 L12.86285,27.89248 L12.7944929,27.92168 L12.6994214,27.97208 L12.6074929,28.03328 L12.5442429,28.08608 L12.4688143,28.15728 L12.4369929,28.19288 L12.3482071,28.31048 L12.2625643,28.46928 L12.22485,28.57248 L12.1914571,28.70008 L12.1733857,28.81528 L12.1722071,28.87008 L12.1690643,28.91328 L12.1690643,37.91248 L12.1663143,37.94328 L12.1561,37.98088 L12.1466714,37.99528 L12.1030643,38.03968 L12.0901,38.04808 L12.0633857,38.05848 L12.0138857,38.06568 L11.9722429,38.05928 L11.9518143,38.05128 L11.9082071,38.01968 L11.8873857,37.99768 L11.8665643,37.94248 L11.8634214,37.91688 L11.8642071,28.86808 L11.8752071,28.73888 L11.8976,28.60408 L11.9054571,28.57128 L11.9482786,28.43168 L11.9616357,28.39848 L12.0233143,28.25928 L12.0681,28.18088 L12.0912786,28.14288 L12.1140643,28.10928 L12.1784929,28.02408 L12.2421357,27.94848 L12.2700286,27.92048 L12.3442786,27.85008 L12.4605643,27.75728 L12.4904214,27.73728 L12.6212429,27.66088 L12.7485286,27.60248 L12.82985,27.57368 L12.9037071,27.55288 L13.0734214,27.51928 L13.1944214,27.51048 L13.2655286,27.50928 L13.3920286,27.51728 L13.5574214,27.54608 L13.6521,27.57328 L13.76485,27.61368 L13.8343857,27.64368 L13.9424214,27.70088 L14.0103857,27.74288 L14.0744214,27.78848 L14.1042786,27.81288 L14.2252786,27.88568 C14.2335286,27.89048 14.2421714,27.89528 14.2516,27.89808 L14.34785,27.92888 C14.3596357,27.93248 14.3722071,27.93448 14.3851714,27.93488 L14.4299571,27.94048 C14.4366357,27.94088 14.4857429,27.94208 14.4877071,27.94208 L14.5167786,27.93888 L14.6849214,27.90448 C14.6990643,27.90168 14.7120286,27.89648 14.7238143,27.88968 L14.8157429,27.83608 L14.9233857,27.75688 L14.9905643,27.71448 L15.1009571,27.65288 L15.2082071,27.60608 L15.3174214,27.56808 L15.4215286,27.54128 L15.5810286,27.51568 L15.7354214,27.50928 L15.8741,27.51928 L15.9668143,27.53408 L16.0654214,27.55648 L16.13535,27.57808 L16.2257071,27.61088 L16.3529929,27.67168 L16.4288143,27.71648 L16.5128857,27.77168 L16.6244571,27.86328 L16.6912429,27.92688 L16.7556714,27.99888 L16.8130286,28.07288 L16.8719571,28.15648 L16.8912071,28.18928 L16.9607429,28.32408 L17.0145643,28.45488 L17.0255643,28.48848 L17.0621,28.62968 L17.0821357,28.75728 Z" id="Fill-17" fill="#050302"></path>
                    <path d="M9.22000357,26.34204 C9.22000357,26.60004 9.01453929,26.80844 8.76193214,26.80844 C8.64171786,26.80844 8.53368214,26.76044 8.45196786,26.68364 L8.04025357,26.98164 C8.04025357,26.98164 7.55900357,27.29164 7.39400357,27.58164 C7.22821786,27.87044 7.24825357,28.08124 7.24825357,28.08124 L7.29225357,28.40084 C7.29225357,28.40084 7.329575,28.55684 7.183825,28.59804 C7.038075,28.63924 6.97403929,28.43564 6.97403929,28.43564 L6.90961071,27.94004 C6.90961071,27.94004 6.80353929,27.32124 6.24214643,27.02204 C6.02961071,26.90884 5.89800357,26.83844 5.81589643,26.79484 C5.73496786,26.86844 5.62928929,26.91364 5.51261071,26.91364 C5.26000357,26.91364 5.055325,26.70564 5.055325,26.44764 C5.055325,26.19004 5.26000357,25.98204 5.51261071,25.98204 C5.76600357,25.98204 5.971075,26.19004 5.971075,26.44764 C5.971075,26.47724 5.96793214,26.50564 5.962825,26.53324 L6.69353929,26.91284 C6.69353929,26.91284 6.82161071,26.94764 6.85893214,26.79244 C6.88878929,26.66924 7.05300357,26.05164 7.12096786,25.79884 C6.91746786,25.75124 6.76503929,25.56684 6.76503929,25.34524 C6.76503929,25.08764 6.97050357,24.87844 7.22311071,24.87844 C7.47650357,24.87844 7.68118214,25.08764 7.68118214,25.34524 C7.68118214,25.51924 7.58650357,25.66884 7.447825,25.74964 L7.13668214,26.97844 C7.13668214,26.97844 7.12725357,27.08444 7.19443214,27.11924 C7.26161071,27.15444 7.37318214,27.10284 7.41718214,27.06804 C7.45214643,27.04084 8.05753929,26.59764 8.311325,26.41244 C8.30739643,26.38924 8.30386071,26.36644 8.30386071,26.34204 C8.30386071,26.08444 8.50893214,25.87524 8.76193214,25.87524 C9.01453929,25.87524 9.22000357,26.08444 9.22000357,26.34204" id="Fill-19" fill="#050302"></path>
                    <g id="Group-23">
                        <mask id="mask-4" fill="white">
                            <use xlink:href="#path-3"></use>
                        </mask>
                        <g id="Clip-22"></g>
                        <path d="M20.9040464,5.086 C20.7087964,5.086 20.550475,4.9248 20.550475,4.726 C20.550475,4.5264 20.7087964,4.3652 20.9040464,4.3652 C21.0992964,4.3652 21.2584036,4.5264 21.2584036,4.726 C21.2584036,4.9248 21.0992964,5.086 20.9040464,5.086 M13.3808321,1.5044 C13.3808321,1.3056 13.5395464,1.144 13.7347964,1.144 C13.9304393,1.144 14.0891536,1.3056 14.0891536,1.5044 C14.0891536,1.704 13.9304393,1.8648 13.7347964,1.8648 C13.5395464,1.8648 13.3808321,1.704 13.3808321,1.5044 M10.8323679,1.612 C10.636725,1.612 10.4787964,1.4508 10.4787964,1.252 C10.4787964,1.052 10.636725,0.8912 10.8323679,0.8912 C11.0280107,0.8912 11.1871179,1.052 11.1871179,1.252 C11.1871179,1.4508 11.0280107,1.612 10.8323679,1.612 M7.99436786,1.8652 C7.79911786,1.8652 7.64001071,1.7044 7.64001071,1.5056 C7.64001071,1.306 7.79911786,1.1448 7.99436786,1.1448 C8.19001071,1.1448 8.34911786,1.306 8.34911786,1.5056 C8.34911786,1.7044 8.19001071,1.8652 7.99436786,1.8652 M0.763439286,5.0916 C0.568582143,5.0916 0.409867857,4.9304 0.409867857,4.7312 C0.409867857,4.532 0.568582143,4.3708 0.763439286,4.3708 C0.959475,4.3708 1.11818929,4.532 1.11818929,4.7312 C1.11818929,4.9304 0.959475,5.0916 0.763439286,5.0916 M2.79136786,3.6276 C2.595725,3.6276 2.43740357,3.4668 2.43740357,3.2676 C2.43740357,3.068 2.595725,2.9072 2.79136786,2.9072 C2.98661786,2.9072 3.145725,3.068 3.145725,3.2676 C3.145725,3.4668 2.98661786,3.6276 2.79136786,3.6276 M5.32176071,2.586 C5.12611786,2.586 4.96818929,2.4256 4.96818929,2.2264 C4.96818929,2.0272 5.12611786,1.8652 5.32176071,1.8652 C5.51701071,1.8652 5.67651071,2.0272 5.67651071,2.2264 C5.67651071,2.4256 5.51701071,2.586 5.32176071,2.586 M16.3806893,1.8408 C16.576725,1.8408 16.7358321,2.0024 16.7358321,2.2016 C16.7358321,2.4008 16.576725,2.5616 16.3806893,2.5616 C16.1854393,2.5616 16.0271179,2.4008 16.0271179,2.2016 C16.0271179,2.0024 16.1854393,1.8408 16.3806893,1.8408 M18.8906536,2.8864 C19.0862964,2.8864 19.2450107,3.0476 19.2450107,3.2468 C19.2450107,3.4464 19.0862964,3.6072 18.8906536,3.6072 C18.6954036,3.6072 18.5366893,3.4464 18.5366893,3.2468 C18.5366893,3.0476 18.6954036,2.8864 18.8906536,2.8864 M20.8977607,3.9268 C20.4722964,3.9268 20.1281536,4.2776 20.1281536,4.7108 C20.1281536,4.8176 20.1493679,4.9196 20.187475,5.0124 C20.041725,5.2212 18.8985107,6.814 18.204725,6.3844 C17.6048321,6.0136 18.3654036,4.5916 18.6796893,4.0592 C18.7429393,4.074 18.8077607,4.0848 18.8761179,4.0848 C19.3420464,4.0848 19.7203679,3.6996 19.7203679,3.2248 C19.7203679,2.75 19.3420464,2.3652 18.8761179,2.3652 C18.4094036,2.3652 18.031475,2.75 18.031475,3.2248 C18.031475,3.4332 18.1072964,3.6216 18.2279036,3.77 L18.2216179,3.7788 C17.6276179,4.7972 16.9192964,5.786 16.1654036,5.3092 C15.550975,4.9204 16.0628679,3.5532 16.2734393,3.0588 C16.3029036,3.0616 16.3315821,3.0676 16.3626179,3.0676 C16.8293321,3.0676 17.2072607,2.6828 17.2072607,2.208 C17.2072607,1.7328 16.8293321,1.348 16.3626179,1.348 C15.8962964,1.348 15.5183679,1.7328 15.5183679,2.208 C15.5183679,2.4424 15.6106893,2.654 15.7603679,2.8096 C15.5545107,3.3444 14.9039393,4.832 14.1084036,4.5332 C13.2999036,4.2292 13.5741179,2.868 13.683725,2.4336 C13.6923679,2.434 13.7006179,2.436 13.7096536,2.436 C14.2121179,2.436 14.6202964,2.0204 14.6202964,1.5088 C14.6202964,0.9964 14.2121179,0.5816 13.7096536,0.5816 C13.2060107,0.5816 12.798225,0.9964 12.798225,1.5088 C12.798225,1.7992 12.9325821,2.0552 13.1380464,2.2252 C13.0960107,2.4812 12.8100107,4.0356 12.0132964,4.0356 C11.159225,4.0356 11.0900821,2.1644 11.087725,2.1048 C11.4668321,1.992 11.7453679,1.64 11.7453679,1.2184 C11.7453679,0.706 11.3371893,0.2908 10.8343321,0.2908 C10.3310821,0.2908 9.92329643,0.706 9.92329643,1.2184 C9.92329643,1.64 10.2018321,1.992 10.5805464,2.1048 C10.5781893,2.1644 10.5094393,4.0356 9.65536786,4.0356 C8.85865357,4.0356 8.57186786,2.4812 8.53061786,2.2252 C8.73608214,2.0552 8.87004643,1.7992 8.87004643,1.5088 C8.87004643,0.9964 8.46226071,0.5816 7.95940357,0.5816 C7.45576071,0.5816 7.047975,0.9964 7.047975,1.5088 C7.047975,2.0204 7.45576071,2.436 7.95940357,2.436 C7.96765357,2.436 7.97590357,2.434 7.98454643,2.4336 C8.09493929,2.868 8.36876071,4.2292 7.55908214,4.5332 C6.764725,4.832 6.11336786,3.3444 5.90829643,2.8096 C6.05758214,2.654 6.15029643,2.4424 6.15029643,2.208 C6.15029643,1.7328 5.771975,1.348 5.30565357,1.348 C4.83893929,1.348 4.46140357,1.7328 4.46140357,2.208 C4.46140357,2.6828 4.83893929,3.0676 5.30565357,3.0676 C5.33590357,3.0676 5.36536786,3.0616 5.395225,3.0588 C5.60579643,3.5532 6.11729643,4.9204 5.50286786,5.3092 C4.74936786,5.786 4.04104643,4.7972 3.44704643,3.7788 L3.44036786,3.77 C3.560975,3.6216 3.63679643,3.4332 3.63679643,3.2248 C3.63679643,2.75 3.25886786,2.3652 2.79293929,2.3652 C2.32583214,2.3652 1.94829643,2.75 1.94829643,3.2248 C1.94829643,3.6996 2.32583214,4.0848 2.79293929,4.0848 C2.86051071,4.0848 2.925725,4.074 2.98858214,4.0592 C3.30326071,4.5916 4.06461786,6.0136 3.46393929,6.3844 C2.77015357,6.814 1.62733214,5.2212 1.48158214,5.0124 C1.51890357,4.9196 1.54011786,4.8176 1.54011786,4.7108 C1.54011786,4.2776 1.195975,3.9268 0.770117857,3.9268 C0.345046429,3.9268 0.000117857143,4.2776 0.000117857143,4.7108 C0.000117857143,5.144 0.345046429,5.4948 0.770117857,5.4948 C0.874617857,5.4948 0.974010714,5.4732 1.06476071,5.4352 L3.45254643,7.7732 C4.94226071,6.974 7.26993929,6.4368 10.8335464,6.4368 L10.8351179,6.4368 C14.3983321,6.4368 16.7260107,6.974 18.215725,7.7732 L20.6035107,5.4352 C20.6946536,5.4732 20.7932607,5.4948 20.8977607,5.4948 C21.323225,5.4948 21.6685464,5.144 21.6685464,4.7108 C21.6685464,4.2776 21.323225,3.9268 20.8977607,3.9268" id="Fill-21" fill="#050302" mask="url(#mask-4)"></path>
                    </g>
                    <path d="M17.3096393,8.77504 C15.8572464,8.09344 13.6788536,7.74784 10.8333893,7.74784 C8.00521071,7.74784 5.83506786,8.08904 4.382675,8.76304 C4.25224643,8.82384 4.09903214,8.76504 4.03971071,8.63224 C3.98038929,8.49984 4.03774643,8.34384 4.16778214,8.28344 C5.68735357,7.57784 7.930175,7.22024 10.8333893,7.22024 C13.7538893,7.22024 16.0061393,7.58264 17.5264964,8.29664 C17.6565321,8.35744 17.7127107,8.51344 17.6529964,8.64624 C17.6093893,8.74264 17.5154964,8.79904 17.4180679,8.79904 C17.3815321,8.79904 17.3449964,8.79144 17.3096393,8.77504" id="Fill-24" fill="#050302"></path>
                    <path d="M10.8342143,9.29008 C10.6385714,9.29008 10.48025,9.12888 10.48025,8.92968 C10.48025,8.73048 10.6385714,8.56888 10.8342143,8.56888 C11.0298571,8.56888 11.1881786,8.73048 11.1881786,8.92968 C11.1881786,9.12888 11.0298571,9.29008 10.8342143,9.29008" id="Fill-26" fill="#050302"></path>
                    <path d="M16.4786679,10.13032 C16.283025,10.13032 16.1247036,9.96912 16.1247036,9.76952 C16.1247036,9.57072 16.283025,9.40952 16.4786679,9.40952 C16.6747036,9.40952 16.8322393,9.57072 16.8322393,9.76952 C16.8322393,9.96912 16.6747036,10.13032 16.4786679,10.13032" id="Fill-28" fill="#050302"></path>
                    <path d="M13.7302,9.4602 C13.53495,9.4602 13.3762357,9.2986 13.3762357,9.0998 C13.3762357,8.9006 13.53495,8.739 13.7302,8.739 C13.9262357,8.739 14.0845571,8.9006 14.0845571,9.0998 C14.0845571,9.2986 13.9262357,9.4602 13.7302,9.4602" id="Fill-30" fill="#050302"></path>
                </g>
            </g>
        </g>
    </g>
</svg>